<?xml version="1.0" encoding="utf-8"?>
<!-- Generator: Adobe Illustrator 16.0.0, SVG Export Plug-In . SVG Version: 6.00 Build 0)  -->
<!DOCTYPE svg PUBLIC "-//W3C//DTD SVG 1.1//EN" "http://www.w3.org/Graphics/SVG/1.1/DTD/svg11.dtd">
<svg version="1.1" id="Icons" xmlns="http://www.w3.org/2000/svg" xmlns:xlink="http://www.w3.org/1999/xlink" x="0px" y="0px"
	 width="100px" height="100px" viewBox="0 0 100 100" enable-background="new 0 0 100 100" xml:space="preserve">
<path id="Amazon" fill="#FFFFFF" d="M58.23,30.141c-2.18,0.172-4.692,0.338-7.205,0.676c-3.853,0.498-7.706,1.174-10.887,2.68
	C33.94,36.018,29.75,41.385,29.75,49.272c0,9.904,6.368,14.931,14.407,14.931c2.683,0,4.86-0.33,6.866-0.834
	c3.187-1.008,5.865-2.852,9.047-6.209c1.845,2.521,2.344,3.695,5.529,6.375c0.838,0.339,1.676,0.339,2.344-0.166
	c2.011-1.678,5.525-4.696,7.373-6.375c0.836-0.678,0.666-1.68,0.168-2.521c-1.846-2.348-3.687-4.365-3.687-8.889V30.479
	c0-6.381,0.499-12.252-4.188-16.61C63.76,10.339,57.729,9,53.038,9c-0.672,0-1.34,0-2.013,0
	c-8.543,0.504-17.589,4.191-19.603,14.766c-0.331,1.339,0.676,1.844,1.345,2.017l9.38,1.174c1.006-0.173,1.506-1.009,1.671-1.852
	c0.843-3.688,3.856-5.531,7.207-5.87c0.168,0,0.336,0,0.673,0c2.005,0,4.184,0.842,5.358,2.513c1.336,2.018,1.174,4.704,1.174,7.052
	V30.141z M58.23,39.879c0,3.861,0.162,6.879-1.846,10.229c-1.172,2.348-3.182,3.86-5.359,4.365c-0.336,0-0.833,0.174-1.339,0.174
	c-3.684,0-5.867-2.854-5.867-7.052c0-5.367,3.187-7.888,7.207-9.062c2.179-0.504,4.691-0.67,7.205-0.67V39.879z M89.086,86.986
	C93.182,83.521,94.91,77.232,95,73.95v-0.548c0-0.733-0.182-1.274-0.359-1.549c-0.82-1-6.832-1.916-12.016-0.367
	c-1.456,0.462-2.732,1.096-3.915,1.916c-0.91,0.642-0.728,1.455,0.183,1.367c1-0.186,2.276-0.271,3.732-0.461
	c3.186-0.266,6.917-0.358,7.826,0.823c1.27,1.548-1.456,8.296-2.643,11.214C87.449,87.262,88.266,87.627,89.086,86.986z
	 M5.451,73.95C17.189,84.616,32.659,91,49.954,91c10.739,0,23.112-3.011,32.671-8.752c1.275-0.734,2.546-1.555,3.729-2.463
	c1.64-1.182,0.184-3.012-1.455-2.284c-0.728,0.274-1.547,0.642-2.272,0.915c-10.472,4.105-21.476,6.021-31.672,6.021
	c-16.201,0-31.852-4.472-44.503-11.854C5.268,71.948,4.447,73.128,5.451,73.95z"/>
</svg>
