<?xml version="1.0" encoding="utf-8"?>
<!-- Generator: Adobe Illustrator 16.0.0, SVG Export Plug-In . SVG Version: 6.00 Build 0)  -->
<!DOCTYPE svg PUBLIC "-//W3C//DTD SVG 1.1//EN" "http://www.w3.org/Graphics/SVG/1.1/DTD/svg11.dtd">
<svg version="1.1" id="Icons" xmlns="http://www.w3.org/2000/svg" xmlns:xlink="http://www.w3.org/1999/xlink" x="0px" y="0px"
	 width="100px" height="100px" viewBox="0 0 100 100" enable-background="new 0 0 100 100" xml:space="preserve">
<path id="Spotify" fill="#FFFFFF" d="M20.389,84.279c6.928-9.985,18.439-16.545,31.513-16.545c11.904,0,22.509,5.438,29.546,13.945
	C89.512,73.546,94.5,62.359,94.5,50.002C94.5,25.148,74.354,5,49.5,5c-24.852,0-45,20.148-45,45.002
	C4.5,63.742,10.678,76.027,20.389,84.279z M73.555,63.5c-0.654,1.459-1.824,1.755-3.195,1.122
	c-5.992-2.772-12.662-4.325-19.695-4.325c-7.22,0-14.055,1.637-20.171,4.546c-0.655,0.313-2.095,0.45-2.743-1.415
	c-0.648-1.867,0.376-2.923,0.965-3.195c6.673-3.121,14.099-4.893,21.949-4.893c7.712,0,15.134,1.467,21.595,4.729
	C73.277,60.584,74.208,62.041,73.555,63.5z M77.384,52.005c-0.466,0.652-1.19,1.104-2.053,1.104c-0.238,0-0.455-0.077-0.673-0.139
	c-7.344-3.245-15.452-5.067-23.995-5.067c-8.479,0-16.534,1.794-23.835,4.993c-0.264,0.093-0.536,0.174-0.832,0.174
	c-0.878,0-1.616-0.469-2.079-1.143l-0.486-1.459c0.009-0.757,0.362-1.412,0.891-1.878c8.044-3.611,16.951-5.645,26.342-5.645
	c9.387,0,18.288,2.029,26.331,5.641c0.539,0.459,0.884,1.134,0.897,1.891L77.384,52.005z M21.053,33.831
	c9.154-3.694,19.136-5.758,29.61-5.758c10.378,0,20.272,2.021,29.354,5.651c1.229,0.627,2.092,1.861,2.092,3.335
	c0,2.088-1.694,3.78-3.78,3.78c-0.292,0-0.567-0.065-0.839-0.129c-8.292-3.343-17.34-5.203-26.826-5.203
	c-9.494,0-18.549,1.862-26.843,5.211c-0.269,0.06-0.535,0.121-0.82,0.121c-2.086,0-3.78-1.692-3.78-3.78
	C19.22,35.684,19.959,34.492,21.053,33.831z M51.902,82.607c-7.622,0-14.372,3.673-18.678,9.311C38.279,93.882,43.753,95,49.5,95
	c7.123,0,13.831-1.698,19.816-4.645C65.012,85.605,58.807,82.607,51.902,82.607z"/>
</svg>
